<?xml version="1.0" standalone="no"?>
<!DOCTYPE svg PUBLIC "-//W3C//DTD SVG 20010904//EN"
 "http://www.w3.org/TR/2001/REC-SVG-20010904/DTD/svg10.dtd">
<svg version="1.0" xmlns="http://www.w3.org/2000/svg"
 width="200.000000pt" height="200.000000pt" viewBox="0 0 200.000000 200.000000"
 preserveAspectRatio="xMidYMid meet">
<metadata>
Created by potrace 1.11, written by Peter Selinger 2001-2013
</metadata>
<g transform="translate(0.000000,200.000000) scale(0.100000,-0.100000)"
fill="#000000" stroke="none">
<path d="M837 1885 c-442 -84 -759 -485 -734 -930 19 -333 205 -615 501 -760
142 -70 224 -89 396 -89 173 0 254 19 397 89 232 114 406 327 475 580 31 115
31 336 0 450 -88 319 -333 563 -650 646 -103 27 -282 33 -385 14z m293 -159
c217 -39 407 -170 515 -353 24 -42 54 -81 66 -87 12 -6 27 -18 32 -27 15 -24
0 -68 -29 -81 -37 -17 -78 16 -81 66 -3 76 -128 238 -245 316 -33 22 -64 40
-69 40 -5 0 -9 -42 -9 -92 l0 -92 -62 -63 -62 -63 20 -27 c21 -28 23 -28 147
-31 l126 -3 3 -72 3 -72 98 -3 c79 -2 97 0 97 12 0 14 48 32 58 21 3 -3 8 -47
10 -98 8 -203 -66 -392 -213 -542 -121 -123 -267 -194 -447 -216 -314 -39
-636 148 -758 441 -13 30 -32 63 -42 73 -45 45 1 124 58 98 32 -14 43 -47 31
-86 -7 -25 -5 -40 12 -73 12 -23 24 -42 27 -42 3 0 43 32 89 71 l84 72 3 106
3 106 88 3 87 3 0 54 0 55 -60 0 -60 0 0 60 0 61 -137 -3 -137 -3 -19 -60
c-10 -33 -22 -103 -25 -155 l-7 -95 -29 -3 -29 -4 5 104 c21 434 430 761 858
684z"/>
<path d="M913 1670 c-87 -13 -83 -7 -83 -125 l0 -105 60 0 60 0 0 -60 0 -60
88 0 88 0 62 63 63 63 -3 94 -3 94 -57 18 c-69 20 -204 30 -275 18z"/>
<path d="M706 1604 c-114 -58 -222 -156 -279 -253 l-18 -31 120 0 121 0 0 60
0 60 60 0 60 0 0 95 c0 52 -3 95 -7 95 -5 0 -30 -12 -57 -26z"/>
<path d="M710 1290 l0 -90 90 0 90 0 0 90 0 90 -90 0 -90 0 0 -90z"/>
<path d="M950 1200 l0 -60 -60 0 -60 0 0 -90 0 -90 -90 0 -90 0 0 -53 c0 -51
2 -54 60 -112 l60 -59 0 57 0 57 150 0 150 0 0 -90 0 -90 58 0 c57 0 58 0 120
63 l63 64 -3 69 -3 69 -57 3 -58 3 0 111 c0 107 -1 113 -31 160 l-31 48 -89 0
-89 0 0 -60z"/>
<path d="M1250 1085 l0 -85 85 0 85 0 0 85 0 85 -85 0 -85 0 0 -85z"/>
<path d="M1480 980 l0 -39 -57 -3 -58 -3 -5 -87 c-4 -66 -9 -91 -24 -107 -23
-25 -35 -10 101 -129 l81 -72 35 47 c83 116 124 223 134 356 l6 77 -107 0
-106 0 0 -40z"/>
<path d="M830 700 l0 -90 90 0 90 0 0 90 0 90 -90 0 -90 0 0 -90z"/>
<path d="M543 688 c-71 -60 -91 -83 -85 -95 5 -8 35 -42 68 -75 136 -137 285
-200 479 -202 116 0 181 13 284 60 76 35 185 109 179 123 -2 4 -45 45 -96 91
l-93 83 -33 -32 c-30 -29 -37 -31 -104 -31 l-72 0 0 -30 0 -30 -150 0 -150 0
0 43 c0 39 -5 48 -67 109 l-68 67 -92 -81z"/>
</g>
</svg>
