<?xml version="1.0" standalone="no"?>
<!DOCTYPE svg PUBLIC "-//W3C//DTD SVG 20010904//EN"
 "http://www.w3.org/TR/2001/REC-SVG-20010904/DTD/svg10.dtd">
<svg version="1.0" xmlns="http://www.w3.org/2000/svg"
 width="902.000000pt" height="902.000000pt" viewBox="0 0 902.000000 902.000000"
 preserveAspectRatio="xMidYMid meet">
<metadata>
Created by potrace 1.11, written by Peter Selinger 2001-2013
</metadata>
<g transform="translate(0.000000,902.000000) scale(0.100000,-0.100000)"
fill="#000000" stroke="none">
<path d="M2595 7850 c-467 -274 -854 -500 -858 -502 -8 -3 -9 -1126 -2 -1473
2 -77 3 -230 4 -341 l1 -201 513 -293 c281 -161 514 -297 517 -301 3 -4 4
-276 2 -603 l-3 -595 38 -25 c81 -52 1689 -979 1698 -979 9 0 1628 928 1708
979 l37 24 0 603 0 602 514 298 c283 164 519 304 524 310 7 8 8 355 5 1009
l-6 998 -461 262 c-423 240 -1195 680 -1257 715 -25 15 -37 9 -542 -286 l-517
-301 -517 296 c-284 163 -524 298 -533 300 -8 2 -397 -221 -865 -496z"/>
<path d="M3981 1430 c-91 -24 -147 -56 -198 -113 -57 -66 -78 -132 -78 -252 0
-126 20 -186 82 -255 85 -95 196 -131 403 -131 206 0 318 37 404 132 121 135
109 413 -23 532 -52 47 -87 64 -178 88 -105 26 -308 26 -412 -1z m368 -81
c156 -26 225 -113 225 -284 1 -76 -3 -98 -25 -146 -44 -94 -112 -131 -270
-149 -99 -11 -232 -1 -308 25 -63 20 -111 62 -141 121 -21 42 -25 63 -25 149
0 92 3 104 30 155 49 90 120 126 272 139 87 7 161 4 242 -10z"/>
<path d="M2777 1422 c-15 -17 -17 -57 -17 -363 0 -365 1 -369 46 -369 50 0 54
22 54 318 l0 273 268 -247 c147 -136 290 -269 319 -296 56 -52 95 -62 113 -29
6 13 10 142 10 353 0 286 -2 337 -16 356 -16 23 -39 28 -64 12 -13 -8 -16 -56
-20 -295 l-5 -287 -304 284 c-167 155 -313 288 -325 295 -29 17 -40 16 -59 -5z"/>
<path d="M4695 1420 c-17 -18 -17 -21 -1 -45 l16 -25 180 0 180 0 0 -308 c0
-332 3 -352 54 -352 45 0 46 6 46 342 l0 318 179 0 c150 0 182 3 195 16 9 8
16 22 16 29 0 7 -7 21 -16 29 -13 14 -66 16 -423 16 -393 0 -409 -1 -426 -20z"/>
<path d="M5630 1421 c-6 -13 -10 -143 -10 -356 0 -213 4 -343 10 -356 10 -18
25 -19 339 -19 279 0 330 2 341 15 17 21 4 61 -22 69 -13 3 -146 6 -295 6
l-273 0 0 125 0 125 271 0 c167 0 278 4 290 10 21 12 25 50 7 68 -9 9 -87 12
-290 12 l-278 0 0 115 0 115 284 0 c245 0 287 2 300 16 22 21 20 51 -3 64 -13
6 -138 10 -340 10 -306 0 -321 -1 -331 -19z"/>
</g>
</svg>
